<svg width="320" height="56" viewBox="0 0 320 56" fill="none" xmlns="http://www.w3.org/2000/svg">
<path fill-rule="evenodd" clip-rule="evenodd" d="M257.865 20.862C260.219 24.4153 261.592 28.6807 261.592 33.2586C261.592 45.6624 251.525 55.7337 239.121 55.7337C226.717 55.7337 216.646 45.6624 216.646 33.2586C216.646 30.065 217.314 27.024 218.517 24.27H207.657C207.657 24.27 207.657 51.4429 207.657 55.2832C207.657 55.5303 207.454 55.7337 207.207 55.7337C204.972 55.7337 195.061 55.7337 192.823 55.7337C192.576 55.7337 192.376 55.5303 192.376 55.2832V24.27H183.384V33.7164C183.384 48.9832 174.864 55.7337 160.912 55.7337C146.96 55.7337 138.437 48.9832 138.437 33.7164V11.234C138.437 11.1141 138.484 11.0014 138.571 10.9179C138.655 10.8343 138.767 10.787 138.887 10.787C140.94 10.787 149.42 10.787 151.473 10.787C151.593 10.787 151.705 10.8343 151.789 10.9179C151.876 11.0014 151.923 11.1141 151.923 11.234C151.923 14.4421 151.923 33.7164 151.923 33.7164C151.923 38.1743 155.288 42.2399 160.912 42.2399C166.533 42.2399 169.901 38.1743 169.901 33.7164V11.234C169.901 11.1141 169.948 11.0014 170.031 10.9179C170.119 10.8343 170.231 10.787 170.351 10.787H192.376C192.376 10.787 192.376 2.48875 192.376 0.44688C192.376 0.19982 192.576 0 192.823 0C195.061 0 204.972 0 207.207 0C207.454 0 207.657 0.19982 207.657 0.44688V10.787H216.864C216.718 9.51177 216.646 8.16752 216.646 6.74693V3.95663C216.646 3.86217 216.686 3.76763 216.751 3.70224C216.82 3.63321 216.915 3.59331 217.009 3.59331C218.927 3.59331 227.851 3.59331 229.765 3.59331C229.863 3.59331 229.954 3.63321 230.023 3.70224C230.092 3.76763 230.129 3.86217 230.129 3.95663C230.129 4.78864 230.129 6.74693 230.129 6.74693C230.129 8.37825 230.583 9.95872 231.429 11.3066C233.006 8.83968 235.862 7.19017 239.121 7.19017C242.376 7.19017 245.232 8.83968 246.809 11.3066C247.659 9.95872 248.109 8.37825 248.109 6.74693V3.95663C248.109 3.86217 248.146 3.76763 248.215 3.70224C248.284 3.63321 248.375 3.59331 248.473 3.59331C250.388 3.59331 259.314 3.59331 261.229 3.59331C261.327 3.59331 261.418 3.63321 261.487 3.70224C261.556 3.76763 261.592 3.86217 261.592 3.95663C261.592 4.78864 261.592 6.74693 261.592 6.74693C261.592 12.72 260.288 17.3923 257.865 20.862ZM317.653 46.0657C318.525 45.2991 319.077 44.0893 319.077 42.8431C319.077 40.8266 317.678 38.603 313.693 38.3378C313.373 38.316 312.923 38.2943 312.454 38.2943C310.339 38.2943 307.694 38.5231 307.618 41.6295C307.575 42.952 307.556 45.7533 307.556 48.2675C307.556 49.946 307.556 51.4974 307.596 52.3694C307.629 53.3576 307.949 54.0552 308.417 54.5529C308.879 55.0434 309.5 55.3486 310.205 55.523C311.008 55.7156 311.927 55.7337 312.781 55.7337C313.319 55.7337 313.874 55.7119 314.154 55.6901C318.216 55.4539 320 52.6964 320 50.1822C320 48.46 319.186 46.8468 317.653 46.0657ZM15.2814 33.2586V55.3704C15.2814 55.5703 15.1214 55.7337 14.9216 55.7337C12.8434 55.7337 2.44153 55.7337 0.363323 55.7337C0.163495 55.7337 0 55.5703 0 55.3704C0 50.8253 0 4.90485 0 0.359686C0 0.159858 0.163495 0 0.363323 0C2.44153 0 12.8434 0 14.9216 0C15.1214 0 15.2814 0.159858 15.2814 0.359686V19.7757H15.2886C15.87 19.7757 16.4367 19.7212 16.9853 19.6231C21.1308 18.8673 24.2663 15.4012 24.2736 11.2448C24.2736 11.2448 24.2736 5.48259 24.2736 3.96027C24.2736 3.75681 24.437 3.59331 24.6405 3.59331H37.4004C37.6002 3.59331 37.7637 3.75681 37.7637 3.95663C37.7637 5.47532 37.7637 11.2448 37.7637 11.2448C37.7637 16.6511 36.7137 20.9565 34.7518 24.2736C36.7101 27.5907 37.7565 31.8925 37.7565 37.2951V55.3704C37.7565 55.5703 37.593 55.7337 37.3931 55.7337C35.4784 55.7337 26.5479 55.7337 24.6332 55.7337C24.5387 55.7337 24.4444 55.6938 24.379 55.6284C24.31 55.5593 24.2736 55.4685 24.2736 55.3704C24.2736 52.7908 24.2736 37.2951 24.2736 37.2951C24.27 35.5039 23.685 33.8363 22.6858 32.4629C20.604 32.9934 17.2651 33.2658 15.2814 33.2586ZM72.8136 53.8589C70.0632 55.0652 67.0221 55.7337 63.8249 55.7337C51.421 55.7337 41.3533 45.6624 41.3533 33.2586C41.3533 20.8547 51.421 10.787 63.8249 10.787C76.2287 10.787 86.3 20.8547 86.3 33.2586V55.3704C86.3 55.4649 86.2601 55.5593 86.191 55.6284C86.1256 55.6938 86.0311 55.7337 85.9366 55.7337C84.0183 55.7337 75.0952 55.7337 73.1769 55.7337C73.0824 55.7337 72.9915 55.6938 72.9225 55.6284C72.8534 55.5593 72.8136 55.4649 72.8136 55.3704C72.8136 54.8254 72.8136 53.8589 72.8136 53.8589ZM105.178 10.787H112.826C128.089 10.787 134.564 19.1326 134.833 32.8081H134.844C134.844 32.9606 134.84 33.1096 134.84 33.2586C134.84 33.4075 134.844 33.5601 134.844 33.7091H134.833C134.564 47.3846 128.089 55.7337 112.826 55.7337H90.2603C90.1622 55.7337 90.0714 55.6938 90.0024 55.6284C89.9333 55.5593 89.897 55.4649 89.897 55.3704C89.897 50.8107 89.897 4.85398 89.897 0.352412C89.897 0.257948 89.9332 0.170772 89.9986 0.101741C90.064 0.0363429 90.1549 0 90.2493 0C92.313 0 102.758 0 104.822 0C104.917 0 105.008 0.0363429 105.073 0.101741C105.138 0.170772 105.178 0.257948 105.178 0.352412C105.178 2.21626 105.178 10.787 105.178 10.787ZM290.887 50.4037C291.486 50.3928 294.876 50.3928 295.287 50.4001C295.883 52.1913 296.377 53.7028 296.613 54.2805C296.947 55.1306 297.721 55.5084 298.48 55.5084C299.516 55.5084 300.479 54.7928 300.479 53.6519C300.479 53.3831 300.421 53.0814 300.301 52.7799C300.301 52.7763 300.297 52.769 300.297 52.7653C299.621 51.1704 296.958 44.042 295.647 40.3543C295.2 39.0935 294.095 38.4396 293.034 38.4396C292.013 38.4396 290.974 39.0136 290.52 40.3143C287.363 49.1939 286.386 51.9407 286.084 52.9144C285.91 53.4775 285.917 53.6046 285.917 53.7572C285.917 54.8254 286.869 55.5303 287.835 55.5303C288.631 55.5303 289.397 55.0979 289.695 54.1678V54.1642C289.986 53.245 290.415 51.897 290.887 50.4037ZM268.942 40.4196V40.4378C268.942 40.4378 268.859 51.6609 268.881 52.1005C268.913 53.027 269.186 53.7136 269.629 54.2259C270.261 54.9526 271.278 55.3413 272.652 55.4467C272.924 55.4649 277.826 55.4685 278.12 55.4467C279.515 55.3777 280.115 54.4112 280.115 53.5284C280.115 52.5983 279.432 51.6936 278.258 51.6936C278.258 51.6936 273.469 51.7408 272.997 51.679C272.892 51.6645 272.761 51.6282 272.699 51.6136C272.692 51.5737 272.681 51.5047 272.674 51.4465C272.652 51.0905 272.757 40.4597 272.757 40.4597C272.757 39.1008 271.769 38.4614 270.839 38.4614C269.902 38.4614 268.942 39.1117 268.942 40.4196ZM311.368 52.0133C311.36 51.9734 311.335 51.8752 311.324 51.8026C311.266 51.2721 311.266 50.3965 311.266 48.1221C311.302 48.1184 311.335 48.1149 311.368 48.1149C311.662 48.0967 312.065 48.0894 312.617 48.0894C313.111 48.0894 313.624 48.1112 314.118 48.1512C314.121 48.1512 314.122 48.1512 314.122 48.1512C315.499 48.2565 316.145 49.0704 316.145 49.9532C316.145 50.9742 315.4 52.0279 314.136 52.1078C313.758 52.126 313.261 52.1477 312.803 52.1477C312.283 52.1477 311.902 52.1296 311.622 52.0823C311.527 52.0678 311.415 52.0279 311.368 52.0133ZM293.092 43.755L293.43 44.7868L294.081 46.7524C293.797 46.7597 293.481 46.7632 293.158 46.7632C292.787 46.7632 292.406 46.7561 292.064 46.7524C292.333 45.9313 292.769 44.667 293.092 43.755ZM311.291 44.6233C311.306 43.5842 311.291 42.6032 311.328 42.1672C311.328 42.1636 311.328 42.1636 311.328 42.1636C311.331 42.1091 311.346 42.0365 311.357 42.0001C311.393 41.9892 311.477 41.9638 311.542 41.9529C311.756 41.9165 312.029 41.9057 312.37 41.9057C312.89 41.9057 313.409 41.9239 313.409 41.9239C313.42 41.9239 313.431 41.9275 313.439 41.9275C314.659 41.9275 315.262 42.3998 315.262 43.0501C315.262 43.8058 314.568 44.5688 313.54 44.6269C313.184 44.6451 312.665 44.6451 312.185 44.6451C311.847 44.6451 311.517 44.6342 311.291 44.6233ZM72.8136 33.2586C72.8136 38.2216 68.7879 42.2472 63.8249 42.2472C58.8655 42.2472 54.8364 38.2216 54.8364 33.2586C54.8364 28.2992 58.8655 24.27 63.8249 24.27C68.7879 24.27 72.8136 28.2992 72.8136 33.2586ZM105.178 24.27H112.826C117.539 24.2772 121.357 28.3028 121.357 33.2586C121.357 38.2179 117.539 42.2435 112.826 42.2472H105.178V24.27ZM246.431 28.0304C247.488 29.5019 248.109 31.3075 248.109 33.2586C248.109 38.2216 244.08 42.2472 239.121 42.2472C234.158 42.2472 230.129 38.2216 230.129 33.2586C230.129 31.3075 230.753 29.5019 231.811 28.0304C234.038 28.5245 236.483 28.7643 239.121 28.7643C241.755 28.7643 244.2 28.5245 246.431 28.0304ZM230.677 12.7926C230.325 13.7081 230.129 14.6964 230.129 15.7319C230.129 20.4442 234.158 24.27 239.121 24.27C244.08 24.27 248.109 20.4442 248.109 15.7319C248.109 14.6964 247.917 13.7081 247.564 12.7926C248.865 11.0741 249.563 8.94866 249.563 6.74693V5.0466H260.139V6.74693C260.139 13.8826 258.221 19.0526 254.598 22.417C250.962 25.7923 245.668 27.311 239.121 27.311C232.57 27.311 227.277 25.7923 223.64 22.417C220.017 19.0526 218.099 13.8826 218.099 6.74693V5.0466H228.675V6.74693C228.675 8.94866 229.373 11.0741 230.677 12.7926Z" fill="white"/>
</svg>
