<svg xmlns="http://www.w3.org/2000/svg" width="96" height="96" fill="none"><g fill="#fff" fill-rule="evenodd" clip-path="url(#a)" clip-rule="evenodd"><path d="M48 0c0 26.51 21.49 48 48 48V24C82.743 24 71.998 13.255 71.998 0H48Zm0 96c0-26.51 21.49-48 48-48v24c-13.256 0-24.002 10.745-24.002 24H48Zm0-96c0 26.51-21.491 48-48 48V24c13.256 0 23.999-10.745 23.999-24h24Zm0 96c0-26.51-21.491-48-48-48v24c13.256 0 23.999 10.745 23.999 24h24Z"/></g><defs><clipPath id="a"><path fill="#fff" d="M0 0h96v96H0z"/></clipPath></defs></svg>